<svg xmlns="http://www.w3.org/2000/svg" width="25" height="24" viewBox="0 0 25 24" fill="none">
    <mask id="mask0_2055_10547" style="mask-type:alpha" maskUnits="userSpaceOnUse" x="0" y="0" width="25" height="24">
        <rect x="0.0996094" width="24" height="24" fill="#D9D9D9"/>
    </mask>
    <g mask="url(#mask0_2055_10547)">
        <path d="M9.31239 19.125C9.06556 19.125 8.84447 19.0523 8.64914 18.907C8.45364 18.7615 8.31031 18.5764 8.21914 18.3517L6.03464 12.75H2.36914C2.15664 12.75 1.97856 12.6781 1.83489 12.5342C1.69106 12.3904 1.61914 12.2122 1.61914 11.9997C1.61914 11.7871 1.69106 11.609 1.83489 11.4655C1.97856 11.3218 2.15664 11.25 2.36914 11.25H6.45564C6.64664 11.25 6.81489 11.3035 6.96039 11.4105C7.10589 11.5176 7.21714 11.6584 7.29414 11.8327L9.31139 17.023L13.7961 5.63848C13.887 5.41381 14.0298 5.22881 14.2246 5.08348C14.4196 4.93815 14.6406 4.86548 14.8874 4.86548C15.1342 4.86548 15.3553 4.93815 15.5506 5.08348C15.7461 5.22881 15.8895 5.41381 15.9806 5.63848L18.1844 11.25H21.8499C22.0624 11.25 22.2405 11.3219 22.3841 11.4657C22.528 11.6096 22.5999 11.7877 22.5999 12.0002C22.5999 12.2129 22.528 12.391 22.3841 12.5345C22.2405 12.6781 22.0624 12.75 21.8499 12.75H17.7536C17.5605 12.75 17.3933 12.6965 17.2521 12.5895C17.1108 12.4823 17.0017 12.3416 16.9249 12.1672L14.8884 6.96723L10.4036 18.3517C10.3128 18.5764 10.17 18.7615 9.97514 18.907C9.78014 19.0523 9.55922 19.125 9.31239 19.125Z" fill="currentColor" stroke="currentColor"/>
    </g>
</svg>
