<svg xmlns="http://www.w3.org/2000/svg" width="25" height="24" viewBox="0 0 25 24" fill="none">
    <mask id="mask0_2055_10532" style="mask-type:alpha" maskUnits="userSpaceOnUse" x="0" y="0" width="25" height="24">
        <rect x="0.299805" width="24" height="24" fill="#D9D9D9"/>
    </mask>
    <g mask="url(#mask0_2055_10532)">
        <path d="M4.7998 19.0001V10.1539C4.7998 9.8677 4.8638 9.59661 4.9918 9.34061C5.11997 9.08444 5.29697 8.87353 5.5228 8.70786L11.2153 4.41936C11.5311 4.17836 11.8921 4.05786 12.2983 4.05786C12.7045 4.05786 13.0665 4.17836 13.3843 4.41936L19.0768 8.70786C19.3026 8.87353 19.4796 9.08444 19.6078 9.34061C19.7358 9.59661 19.7998 9.8677 19.7998 10.1539V19.0001C19.7998 19.4091 19.6521 19.7614 19.3566 20.0569C19.0611 20.3524 18.7088 20.5001 18.2998 20.5001H15.1076C14.8514 20.5001 14.6367 20.4134 14.4636 20.2401C14.2902 20.0669 14.2036 19.8523 14.2036 19.5961V14.7116C14.2036 14.4556 14.117 14.2409 13.9438 14.0676C13.7706 13.8944 13.556 13.8079 13.2998 13.8079H11.2998C11.0436 13.8079 10.829 13.8944 10.6558 14.0676C10.4826 14.2409 10.3961 14.4556 10.3961 14.7116V19.5961C10.3961 19.8523 10.3094 20.0669 10.1361 20.2401C9.96289 20.4134 9.74822 20.5001 9.49205 20.5001H6.2998C5.8908 20.5001 5.53855 20.3524 5.24305 20.0569C4.94755 19.7614 4.7998 19.4091 4.7998 19.0001Z" fill="currentColor"/>
    </g>
</svg>
