<svg xmlns="http://www.w3.org/2000/svg" width="25" height="24" viewBox="0 0 25 24" fill="none">
    <mask id="mask0_2055_10537" style="mask-type:alpha" maskUnits="userSpaceOnUse" x="0" y="0" width="25" height="24">
        <rect x="0.899414" width="24" height="24" fill="#D9D9D9"/>
    </mask>
    <g mask="url(#mask0_2055_10537)">
        <path d="M12.9012 21.5C11.5872 21.5 10.3521 21.2507 9.19591 20.752C8.03975 20.2533 7.03408 19.5766 6.17891 18.7218C5.32375 17.8669 4.64666 16.8617 4.14766 15.706C3.64883 14.5503 3.39941 13.3156 3.39941 12.0017C3.39941 10.6877 3.64875 9.45267 4.14741 8.2965C4.64608 7.14033 5.32283 6.13467 6.17766 5.2795C7.0325 4.42433 8.03775 3.74725 9.19341 3.24825C10.3491 2.74942 11.5838 2.5 12.8977 2.5C14.2117 2.5 15.4467 2.74933 16.6029 3.248C17.7591 3.74667 18.7647 4.42342 19.6199 5.27825C20.4751 6.13308 21.1522 7.13833 21.6512 8.294C22.15 9.44967 22.3994 10.6844 22.3994 11.9983C22.3994 13.3123 22.1501 14.5473 21.6514 15.7035C21.1527 16.8597 20.476 17.8653 19.6212 18.7205C18.7663 19.5757 17.7611 20.2528 16.6054 20.7518C15.4497 21.2506 14.215 21.5 12.9012 21.5ZM12.8744 18.8078C13.0564 18.8078 13.2157 18.7394 13.3522 18.6028C13.4888 18.4663 13.5572 18.307 13.5572 18.125V17.5962C14.3328 17.4911 15.0351 17.1997 15.6639 16.722C16.2927 16.2445 16.6072 15.5205 16.6072 14.55C16.6072 13.85 16.4007 13.2308 15.9879 12.6923C15.5751 12.1539 14.7687 11.6681 13.5687 11.2348C12.5173 10.8758 11.8192 10.5648 11.4744 10.302C11.1296 10.0392 10.9572 9.67183 10.9572 9.2C10.9572 8.72817 11.1337 8.34483 11.4869 8.05C11.8401 7.75517 12.3276 7.60775 12.9494 7.60775C13.3212 7.60775 13.6466 7.67725 13.9254 7.81625C14.2042 7.95542 14.4398 8.141 14.6322 8.373C14.754 8.52183 14.895 8.62567 15.0552 8.6845C15.2155 8.7435 15.3672 8.741 15.5104 8.677C15.7059 8.6 15.8395 8.46858 15.9112 8.28275C15.9828 8.09675 15.9648 7.92625 15.8572 7.77125C15.5905 7.39425 15.2597 7.08042 14.8647 6.82975C14.4698 6.57908 14.0507 6.43708 13.6072 6.40375V5.875C13.6072 5.693 13.5388 5.53375 13.4022 5.39725C13.2657 5.26058 13.1064 5.19225 12.9244 5.19225C12.7424 5.19225 12.5832 5.26058 12.4467 5.39725C12.31 5.53375 12.2417 5.693 12.2417 5.875V6.40375C11.3892 6.56792 10.7344 6.91375 10.2774 7.44125C9.82025 7.96892 9.59166 8.55517 9.59166 9.2C9.59166 9.95133 9.81925 10.5558 10.2744 11.0135C10.7296 11.4712 11.4712 11.8846 12.4994 12.2537C13.5622 12.6436 14.2882 12.9933 14.6774 13.303C15.0664 13.6125 15.2609 14.0282 15.2609 14.55C15.2609 15.177 15.0347 15.6324 14.5822 15.9163C14.1295 16.2003 13.6186 16.3422 13.0494 16.3422C12.5744 16.3422 12.1451 16.2237 11.7614 15.9865C11.3777 15.7493 11.0564 15.4064 10.7974 14.9578C10.6962 14.7821 10.5597 14.6638 10.3879 14.603C10.2161 14.542 10.0479 14.5439 9.88341 14.6088C9.70608 14.6736 9.57625 14.7967 9.49391 14.978C9.41175 15.1593 9.411 15.3327 9.49166 15.498C9.77116 16.0583 10.1359 16.5064 10.5859 16.8422C11.0359 17.1783 11.5712 17.4129 12.1917 17.5462V18.125C12.1917 18.307 12.26 18.4663 12.3967 18.6028C12.5332 18.7394 12.6924 18.8078 12.8744 18.8078Z" fill="currentColor"/>
    </g>
</svg>
