<svg xmlns="http://www.w3.org/2000/svg" width="25" height="24" viewBox="0 0 25 24" fill="none">
    <mask id="mask0_2055_10552" style="mask-type:alpha" maskUnits="userSpaceOnUse" x="0" y="0" width="25" height="24">
        <rect x="0.700195" width="24" height="24" fill="#D9D9D9"/>
    </mask>
    <g mask="url(#mask0_2055_10552)">
        <path d="M5.9502 18.8845C5.7377 18.8845 5.55961 18.8127 5.41595 18.669C5.27211 18.5252 5.2002 18.3469 5.2002 18.1343C5.2002 17.9218 5.27211 17.7437 5.41595 17.6C5.55961 17.4565 5.7377 17.3848 5.9502 17.3848H7.00795V9.923C7.00795 8.57817 7.42303 7.38908 8.2532 6.35575C9.0832 5.32242 10.1489 4.6615 11.4502 4.373V3.75C11.4502 3.40283 11.5716 3.10767 11.8144 2.8645C12.0573 2.6215 12.3521 2.5 12.6989 2.5C13.0459 2.5 13.3412 2.6215 13.5847 2.8645C13.8284 3.10767 13.9502 3.40283 13.9502 3.75V4.373C15.2515 4.6615 16.3172 5.32242 17.1472 6.35575C17.9774 7.38908 18.3924 8.57817 18.3924 9.923V17.3848H19.4502C19.6627 17.3848 19.8408 17.4566 19.9844 17.6003C20.1283 17.7441 20.2002 17.9223 20.2002 18.135C20.2002 18.3475 20.1283 18.5256 19.9844 18.6693C19.8408 18.8128 19.6627 18.8845 19.4502 18.8845H5.9502ZM12.6984 21.6923C12.2009 21.6923 11.7756 21.5153 11.4224 21.1613C11.0691 20.8073 10.8924 20.3817 10.8924 19.8845H14.5079C14.5079 20.3833 14.3308 20.8093 13.9764 21.1625C13.6221 21.5157 13.1961 21.6923 12.6984 21.6923Z" fill="currentColor"/>
    </g>
</svg>
