<svg xmlns="http://www.w3.org/2000/svg" width="25" height="24" viewBox="0 0 25 24" fill="none">
    <mask id="mask0_2055_10542" style="mask-type:alpha" maskUnits="userSpaceOnUse" x="0" y="0" width="25" height="24">
        <rect x="0.5" width="24" height="24" fill="#D9D9D9"/>
    </mask>
    <g mask="url(#mask0_2055_10542)">
        <path d="M4.80775 19.5C4.30258 19.5 3.875 19.325 3.525 18.975C3.175 18.625 3 18.1974 3 17.6923V6.30775C3 5.80258 3.175 5.375 3.525 5.025C3.875 4.675 4.30258 4.5 4.80775 4.5H20.1923C20.6974 4.5 21.125 4.675 21.475 5.025C21.825 5.375 22 5.80258 22 6.30775V17.6923C22 18.1974 21.825 18.625 21.475 18.975C21.125 19.325 20.6974 19.5 20.1923 19.5H4.80775ZM4.5 11.596H20.5V8.404H4.5V11.596Z" fill="currentColor"/>
    </g>
</svg>
