<svg xmlns="http://www.w3.org/2000/svg" width="89" height="88" viewBox="0 0 89 88" fill="none">
    <rect x="0.5" width="88" height="88" rx="44" fill="#ECEAF1"/>
    <g clip-path="url(#clip0_2055_10878)">
        <path fill-rule="evenodd" clip-rule="evenodd" d="M39.5486 37.6914L44.8743 55.4142C45.1381 56.3074 45.6858 57.0904 46.4343 57.6446C47.1828 58.1988 48.0915 58.494 49.0229 58.4857C49.858 58.4575 50.6667 58.1859 51.3494 57.7042C52.0322 57.2224 52.5592 56.5516 52.8657 55.7742L56.42 47.0857H61.6429C62.4006 47.0857 63.1273 46.7846 63.6632 46.2488C64.199 45.713 64.5 44.9863 64.5 44.2285C64.5 43.4708 64.199 42.744 63.6632 42.2082C63.1273 41.6724 62.4006 41.3714 61.6429 41.3714H55.4714H55.4543C54.5996 41.377 53.7658 41.6363 53.0588 42.1165C52.3517 42.5967 51.8032 43.2761 51.4829 44.0685L49.1486 49.7714L43.9857 32.5999C43.7475 31.7742 43.2633 31.0407 42.5977 30.4971C41.9321 29.9535 41.1166 29.6256 40.26 29.5571C39.4049 29.4781 38.5459 29.6597 37.7958 30.0778C37.0457 30.4959 36.4397 31.1311 36.0571 31.9L31.32 41.3714H27.3571C26.5994 41.3714 25.8727 41.6724 25.3368 42.2082C24.801 42.744 24.5 43.4708 24.5 44.2285C24.5 44.9863 24.801 45.713 25.3368 46.2488C25.8727 46.7846 26.5994 47.0857 27.3571 47.0857H32.1857H32.2171C33.0056 47.0764 33.7767 46.8527 34.4477 46.4384C35.1187 46.0241 35.6642 45.435 36.0257 44.7342L39.5486 37.6914Z" fill="#C4BFCF"/>
        <path fill-rule="evenodd" clip-rule="evenodd" d="M25.3503 24.8512C24.949 25.253 24.7236 25.7976 24.7236 26.3655C24.7236 26.9334 24.949 27.478 25.3503 27.8798L60.6217 63.1512C60.8179 63.3618 61.0545 63.5306 61.3174 63.6477C61.5802 63.7649 61.864 63.8278 62.1517 63.8329C62.4394 63.838 62.7252 63.7851 62.992 63.6773C63.2589 63.5695 63.5012 63.4091 63.7047 63.2056C63.9082 63.0021 64.0686 62.7598 64.1764 62.4929C64.2842 62.2261 64.3371 61.9403 64.332 61.6526C64.3269 61.3649 64.264 61.0811 64.1468 60.8183C64.0297 60.5554 63.8609 60.3188 63.6503 60.1227L28.3846 24.8484C27.9828 24.4471 27.4382 24.2217 26.8703 24.2217C26.3025 24.2217 25.7578 24.4471 25.356 24.8484L25.3503 24.8512Z" fill="#A49DB4"/>
    </g>
    <defs>
        <clipPath id="clip0_2055_10878">
            <rect width="40" height="40" fill="white" transform="translate(24.5 24)"/>
        </clipPath>
    </defs>
</svg>
