<svg xmlns="http://www.w3.org/2000/svg" width="88" height="88" viewBox="0 0 88 88" fill="none">
    <rect width="88" height="88" rx="44" fill="#ECEAF1"/>
    <g clip-path="url(#clip0_2055_10755)">
        <path fill-rule="evenodd" clip-rule="evenodd" d="M61 50.9224C61 58.5646 53.9164 62 44 62C34.0836 62 27 58.5646 27 50.9764C27 42.6682 31.2533 38.4588 39.7493 34.2468L36.7402 28.7697C36.5607 28.4953 36.4607 28.1783 36.4509 27.8527C36.4412 27.527 36.522 27.2049 36.6848 26.9206C36.8476 26.6364 37.0863 26.4006 37.3754 26.2386C37.6645 26.0765 37.9931 25.9941 38.3263 26.0003H50.3392C50.6512 26.0088 50.9559 26.0946 51.2247 26.2497C51.4936 26.4047 51.7178 26.624 51.8763 26.8869C52.0348 27.1497 52.1224 27.4476 52.131 27.7527C52.1396 28.0577 52.0688 28.3599 51.9253 28.6309L48.2507 34.2468C56.7493 38.4022 61 42.6116 61 50.9224ZM46.3486 36.7857C46.3486 35.8 45.5486 35 44.5629 35C43.5772 35 42.7801 35.8 42.7801 36.7857V38.5771C41.5697 38.6238 40.418 39.1107 39.5413 39.9464C38.6646 40.7821 38.1231 41.9091 38.0186 43.1158C37.914 44.3225 38.2536 45.5259 38.9736 46.4999C39.6936 47.474 40.7443 48.1516 41.9286 48.4057L46.1372 49.3257C46.5686 49.4186 46.9503 49.6679 47.2087 50.0255C47.4672 50.3831 47.5841 50.8238 47.5368 51.2625C47.4896 51.7012 47.2817 52.1069 46.9531 52.4014C46.6244 52.6958 46.1984 52.8582 45.7572 52.8571H43.3772C43.0078 52.8577 42.6473 52.7437 42.3454 52.5309C42.0435 52.318 41.815 52.0167 41.6915 51.6686C41.6134 51.4474 41.4926 51.2437 41.3359 51.0693C41.1791 50.8948 40.9895 50.7529 40.7779 50.6517C40.5664 50.5504 40.3369 50.4919 40.1027 50.4794C39.8685 50.4668 39.6341 50.5005 39.4129 50.5786C39.1917 50.6566 38.9881 50.7775 38.8136 50.9342C38.6391 51.0909 38.4972 51.2805 38.396 51.4921C38.2948 51.7037 38.2362 51.9331 38.2237 52.1674C38.2112 52.4016 38.2449 52.636 38.3229 52.8571C38.6588 53.806 39.2549 54.6412 40.0431 55.2673C40.8313 55.8933 41.7798 56.2848 42.7801 56.3971V58.2143C42.7801 58.6879 42.9682 59.1421 43.3031 59.477C43.638 59.8119 44.0922 60 44.5658 60C45.0394 60 45.4936 59.8119 45.8285 59.477C46.1633 59.1421 46.3515 58.6879 46.3515 58.2143V56.3971C47.615 56.2577 48.7877 55.6734 49.66 54.7489C50.5324 53.8243 51.0476 52.6197 51.1135 51.3503C51.1795 50.0808 50.7919 48.8293 50.02 47.8194C49.2481 46.8094 48.1423 46.1068 46.9001 45.8371L42.6915 44.9143C42.35 44.8444 42.0469 44.6496 41.8414 44.3681C41.6359 44.0866 41.5429 43.7386 41.5804 43.3921C41.6179 43.0455 41.7833 42.7255 42.0443 42.4945C42.3052 42.2634 42.643 42.1381 42.9915 42.1429H45.7515C46.1213 42.1421 46.4823 42.2563 46.7843 42.4698C47.0863 42.6833 47.3145 42.9854 47.4372 43.3343C47.5152 43.5555 47.6361 43.7591 47.7928 43.9336C47.9496 44.1081 48.1392 44.25 48.3507 44.3512C48.5623 44.4524 48.7918 44.511 49.026 44.5235C49.2602 44.536 49.4946 44.5023 49.7158 44.4243C49.937 44.3462 50.1406 44.2254 50.3151 44.0687C50.4896 43.9119 50.6315 43.7223 50.7327 43.5107C50.8339 43.2992 50.8924 43.0697 50.905 42.8355C50.9175 42.6013 50.8838 42.3669 50.8058 42.1457C50.4711 41.1961 49.8753 40.3602 49.0869 39.734C48.2984 39.1078 47.3493 38.7167 46.3486 38.6057V36.7857Z" fill="#C4BFCF"/>
        <path fill-rule="evenodd" clip-rule="evenodd" d="M24.8503 24.8512C24.449 25.253 24.2236 25.7976 24.2236 26.3655C24.2236 26.9334 24.449 27.478 24.8503 27.8798L60.1217 63.1512C60.3179 63.3618 60.5545 63.5306 60.8174 63.6477C61.0802 63.7649 61.364 63.8278 61.6517 63.8329C61.9394 63.838 62.2252 63.7851 62.492 63.6773C62.7589 63.5695 63.0012 63.4091 63.2047 63.2056C63.4082 63.0021 63.5686 62.7598 63.6764 62.4929C63.7842 62.2261 63.8371 61.9403 63.832 61.6526C63.8269 61.3649 63.764 61.0811 63.6468 60.8183C63.5297 60.5554 63.3609 60.3188 63.1503 60.1227L27.8846 24.8484C27.4828 24.4471 26.9382 24.2217 26.3703 24.2217C25.8025 24.2217 25.2578 24.4471 24.856 24.8484L24.8503 24.8512Z" fill="#A49DB4"/>
    </g>
    <defs>
        <clipPath id="clip0_2055_10755">
            <rect width="40" height="40" fill="white" transform="translate(24 24)"/>
        </clipPath>
    </defs>
</svg>
